# xmcd
#
# Track frame offsets:
#	150
#	21472
#	53497
#
# Disc length: 1118 seconds
#
# Revision: 0
# Processed by: cddbd v1.4PL0 Copyright (c) Steve Scherf et al.
# Submitted via: EasyCDDAExtractor 4.6.9.1
#
DISCID=1d045c03
DTITLE=Indecent Obsession - Say Goodbye
DYEAR=1900
DGENRE=
TTITLE0=Say Goodbye(Say Goodbye CD Single Version)
TTITLE1=Say Goodbye(12 Inch Extended Remix)
TTITLE2=Say Goodbye(12 Inch Siren Remix)
EXTD=
EXTT0=
EXTT1=
EXTT2=
PLAYORDER=
